<?xml version="1.0" encoding="utf-8"?>
<!-- Generator: Adobe Illustrator 22.1.0, SVG Export Plug-In . SVG Version: 6.00 Build 0)  -->
<svg version="1.1" id="Layer_1" xmlns="http://www.w3.org/2000/svg" xmlns:xlink="http://www.w3.org/1999/xlink" x="0px" y="0px"
	 viewBox="0 0 550 470" style="enable-background:new 0 0 550 470;" xml:space="preserve">
<style type="text/css">
	.st0{fill:#FFFFFF;stroke:#231F20;stroke-width:3;stroke-miterlimit:10;}
</style>
<g>
	<g>
		<path class="st0" d="M236.6,376.7V363h49.5v-13.7h-49.5v-13.7h49.5v-13.7h-49.5v-13.7h49.5v-13.7h-49.5v-13.7h49.5v-13.7h-49.5
			v-13.7h49.5v-13.7h-49.5v-13.7h49.5v-13.7h-49.5v-13.7h49.5v-13.7h-49.5v-13.7h49.5v-13.7h-49.5v-13.7h49.5v-13.7h-49.5v-13.7
			h49.5v-13.7h-49.5V89h49.5V75.3h-49.5V61.6h49.5V47.9h-49.5V34.1h-61.7v356.7c32-1.1,63.4-5.9,93.8-14.1L236.6,376.7L236.6,376.7z
			"/>
	</g>
	<g>
		<path class="st0" d="M366.8,331.9v-9.1h20.1c4.5-2.8,8.8-5.9,13.1-9.1h-33.2v-9.1H412c3.4-2.7,7-5.5,10.5-8.4v-0.7h-55.7v-8.9
			h55.7v-9.1h-55.7v-9.1h55.7v-9.1h-55.7v-9.1h55.7v-9.1h-55.7v-9.1h55.7v-9.1h-55.7V214h48.3l-8.8-9.1h-39.7v-9.1h30.9l-8.8-9.1
			h-22.2V178H380L311,106.4v256.1c21.3-8.4,41.7-18.7,61.5-30.6L366.8,331.9L366.8,331.9z"/>
	</g>
	<g>
		<path class="st0" d="M82.9,176.1h11.5v11.8H71.5l-11.3,11.8h34.2v11.8H49L38.7,222v1.1h55.7v11.8H38.7v11.8h55.7v11.8H38.7v11.8
			h55.7v11.8H38.7v11.8h55.7v11.8H38.7v11.8h55.7v11.8H38.7v11.8h55.7v11.8H38.7v11.8h55.7v11.8H47c20.6,5.9,41.6,10.3,62.7,13.2
			c13.4,1.8,27,2.7,40.4,3V106.6L82.9,176.1z"/>
	</g>
	<g>
		<path class="st0" d="M528.6,367.5c-7.9-8.9-15.8-17.6-23.7-26.5C360.1,449.9,168.1,467.4,9,381.2l0,0
			c159.1,60,332.2,21.2,449.2-92.6c-7.9-8.9-15.8-17.6-23.7-26.5l106.5-8.2L528.6,367.5z"/>
	</g>
</g>
</svg>
