<?xml version="1.0" encoding="utf-8"?>
<!-- Generator: Adobe Illustrator 22.1.0, SVG Export Plug-In . SVG Version: 6.00 Build 0)  -->
<svg version="1.1" id="Layer_1" xmlns="http://www.w3.org/2000/svg" xmlns:xlink="http://www.w3.org/1999/xlink" x="0px" y="0px"
	 viewBox="0 0 800 800" style="enable-background:new 0 0 800 800;" xml:space="preserve">
<style type="text/css">
	.st0{fill:#FFFFFF;stroke:#231F20;stroke-width:3;stroke-miterlimit:10;}
</style>
<g>
	<g>
		<path class="st0" d="M377.7,479.6v-7.7h28.8v-7.7h-28.8v-7.7h28.8v-7.7h-28.8v-7.7h28.8v-7.7h-28.8v-7.7h28.8V418h-28.8v-7.7h28.8
			v-7.7h-28.8v-7.7h28.8v-7.7h-28.8v-7.7h28.8v-7.7h-28.8v-7.7h28.8v-7.7h-28.8v-7.7h28.8V341h-28.8v-7.7h28.8v-7.7h-28.8V318h28.8
			v-7.7h-28.8v-7.7h28.8v-7.7h-28.8v-7.7h-35.9v200.3c18.6-0.6,36.9-3.3,54.6-7.9L377.7,479.6L377.7,479.6z"/>
	</g>
	<g>
		<path class="st0" d="M453.5,454.4v-5.1h11.7c2.6-1.6,5.1-3.3,7.6-5.1h-19.3v-5.1h26.3c2-1.5,4.1-3.1,6.1-4.7V434h-32.4v-5h32.4
			v-5.1h-32.4v-5.1h32.4v-5.1h-32.4v-5.1h32.4v-5.1h-32.4v-5.1h32.4v-5.1h-32.4v-5.1h28.1l-5.1-5.1h-23.1V378h18l-5.1-5.1h-12.9V368
			h7.8L421,327.8v143.8c12.4-4.7,24.3-10.5,35.8-17.2L453.5,454.4L453.5,454.4z"/>
	</g>
	<g>
		<path class="st0" d="M288.2,366.9h6.7v6.6h-13.3l-6.6,6.6h19.9v6.6h-26.4l-6,6v0.6h32.4v6.6h-32.4v6.6h32.4v6.6h-32.4v6.6h32.4
			v6.6h-32.4v6.6h32.4v6.6h-32.4v6.6h32.4v6.6h-32.4v6.6h32.4v6.6h-32.4v6.6h32.4v6.6h-27.6c12,3.3,24.2,5.8,36.5,7.4
			c7.8,1,15.7,1.5,23.5,1.7V327.9L288.2,366.9z"/>
	</g>
	<g>
		<path class="st0" d="M547.7,474.4c-4.6-5-9.2-9.9-13.8-14.9c-84.3,61.2-196.1,71-288.7,22.6l0,0c92.6,33.7,193.4,11.9,261.5-52
			c-4.6-5-9.2-9.9-13.8-14.9l62-4.6L547.7,474.4z"/>
	</g>
</g>
</svg>
